<svg id="Layer_1" data-name="Layer 1" xmlns="http://www.w3.org/2000/svg" viewBox="0 0 219.78 153.13"><defs><style>.cls-1,.cls-2,.cls-3{fill:none;stroke:#fff;stroke-miterlimit:10;}.cls-1{stroke-width:7px;}.cls-2{stroke-width:1.5px;}.cls-3{stroke-width:0.5px;}.cls-4{fill:#fff;}</style></defs><path class="cls-1" d="M635.19,439.3a73.07,73.07,0,1,0,77.41,68.45A73.08,73.08,0,0,0,635.19,439.3Z" transform="translate(-530.42 -435.66)"/><path class="cls-2" d="M599.83,501.3" transform="translate(-530.42 -435.66)"/><path class="cls-1" d="M567.44,510.16c-10.87,4.2-20.05,9.18-28.41,18.08-3.3,3.75-6.6,7.5-4.4,13.17,3.59,7.42,12,8.73,18.32,9.46a192.15,192.15,0,0,0,68.65,1c39.57-6.22,80.89-13.82,114.82-37.24,5.26-4.17,10.52-8.33,10.27-14.41-.17-20.39-26.64-20-42.51-20.18" transform="translate(-530.42 -435.66)"/><path class="cls-2" d="M596.76,503.34" transform="translate(-530.42 -435.66)"/><path class="cls-3" d="M593.28,511.88" transform="translate(-530.42 -435.66)"/><path class="cls-4" d="M582.18,496a.75.75,0,0,0,0-1.5.75.75,0,0,0,0,1.5Z" transform="translate(-530.42 -435.66)"/><path class="cls-4" d="M592.44,487.67c2.89,0,2.9-4.5,0-4.5s-2.9,4.5,0,4.5Z" transform="translate(-530.42 -435.66)"/><path class="cls-4" d="M595.6,500.35c2.89,0,2.9-4.5,0-4.5s-2.9,4.5,0,4.5Z" transform="translate(-530.42 -435.66)"/><path class="cls-4" d="M602.33,492.55a1.5,1.5,0,0,0,0-3,1.5,1.5,0,0,0,0,3Z" transform="translate(-530.42 -435.66)"/><path class="cls-4" d="M604.62,484.61c2.9,0,2.91-4.5,0-4.5s-2.9,4.5,0,4.5Z" transform="translate(-530.42 -435.66)"/><path class="cls-4" d="M587.11,473.67a1.5,1.5,0,0,0,0-3,1.5,1.5,0,0,0,0,3Z" transform="translate(-530.42 -435.66)"/><path class="cls-4" d="M582.87,486.08c2.9,0,2.9-4.5,0-4.5s-2.9,4.5,0,4.5Z" transform="translate(-530.42 -435.66)"/><path class="cls-4" d="M602.1,476.7a1.5,1.5,0,0,0,0-3,1.5,1.5,0,0,0,0,3Z" transform="translate(-530.42 -435.66)"/><path class="cls-4" d="M599.74,466.14c2.9,0,2.9-4.5,0-4.5s-2.9,4.5,0,4.5Z" transform="translate(-530.42 -435.66)"/><path class="cls-4" d="M585.91,508c2.9,0,2.9-4.5,0-4.5s-2.9,4.5,0,4.5Z" transform="translate(-530.42 -435.66)"/></svg>