<svg enable-background="new 0 0 256 256" height="512" viewBox="0 0 256 256" width="512" xmlns="http://www.w3.org/2000/svg"><g id="Layer_26"><g><g><g><path d="m199.812 170v-145.534c0-6.787-5.553-12.341-12.341-12.341h-100.367l-50.402 50.401v107.474z" fill="#edf4fc"/></g></g><g><g><path d="m171.247 106.015-21.923-16.472c-2.179-1.637-5.282-1.212-6.933.984-1.64 2.182-1.199 5.292.984 6.933l16.655 12.514-16.656 12.514c-2.182 1.641-2.624 4.751-.984 6.933 1.649 2.192 4.76 2.617 6.932.984l21.924-16.473c2.636-1.981 2.64-5.934.001-7.917z" fill="#8690fa"/></g></g><g><g><path d="m92.63 122.487-16.655-12.514 16.655-12.514c2.187-1.644 2.629-4.744.984-6.932-1.639-2.182-4.75-2.624-6.932-.985l-21.923 16.473c-1.256.944-1.976 2.387-1.976 3.959 0 1.571.721 3.013 1.976 3.957l21.923 16.472c2.187 1.643 5.29 1.203 6.932-.984 1.641-2.183 1.208-5.284-.984-6.932z" fill="#8690fa"/></g></g><g><g><path d="m118.42 84.583c-5.71 0-11.267 2.062-14.247 6.958-1.353 2.222-2.039 4.801-2.039 7.665 0 .938.76 1.698 1.698 1.698h5.63c.938 0 1.698-.76 1.698-1.698 0-4.13 2.924-6.428 7.068-6.428 3.984 0 6.492 2.198 6.492 6.428 0 3.092-.867 5.103-2.649 6.15-2.049 1.203-4.913 1.813-8.514 1.813h-2.559c-.938 0-1.698.76-1.698 1.698v11.517c0 .938.76 2.202 1.698 2.202h5.502c.938 0 1.698-1.265 1.698-2.202v-5.925c9.439-.667 15.676-5.548 15.676-15.253 0-9.255-6.35-14.623-15.454-14.623z" fill="#8690fa"/></g></g><g><g><path d="m117.332 122.586h-7.038c-.938 0-1.698.76-1.698 1.698v6.846c0 .938.76 1.698 1.698 1.698h7.038c.938 0 1.698-.76 1.698-1.698v-6.846c0-.938-.76-1.698-1.698-1.698z" fill="#8690fa"/></g></g><g><g><path d="m36.702 221.534c0 6.787 5.553 12.341 12.341 12.341h138.428c6.787 0 12.341-5.553 12.341-12.341v-51.534h-163.11z" fill="#8690fa"/></g></g><g><g><path d="m187.471 236.375h-138.428c-8.183 0-14.841-6.658-14.841-14.841v-51.534c0-1.381 1.119-2.5 2.5-2.5s2.5 1.119 2.5 2.5v51.534c0 5.426 4.415 9.841 9.841 9.841h138.428c5.426 0 9.841-4.415 9.841-9.841v-51.534c0-1.381 1.119-2.5 2.5-2.5s2.5 1.119 2.5 2.5v51.534c0 8.183-6.658 14.841-14.841 14.841z"/></g></g><g><g><path d="m36.702 62.526h38.061c6.787 0 12.341-5.553 12.341-12.341v-38.06z" fill="#8690fa"/></g></g><g><g><path d="m57.194 19.551c-4.149.773-7.419 3.976-8.208 8.041-.04.204-.325.204-.364 0-.789-4.065-4.059-7.268-8.208-8.041-.208-.039-.208-.318 0-.357 4.149-.773 7.419-3.976 8.208-8.041.04-.204.325-.204.364 0 .789 4.065 4.059 7.268 8.208 8.041.208.039.208.318 0 .357z" fill="#f5c84c"/></g></g><g><g><path d="m221.688 112.253c-2.91.542-5.204 2.789-5.757 5.64-.028.143-.228.143-.255 0-.553-2.851-2.847-5.098-5.757-5.64-.146-.027-.146-.223 0-.25 2.91-.542 5.204-2.789 5.757-5.64.028-.143.228-.143.255 0 .553 2.851 2.847 5.098 5.757 5.64.146.027.146.222 0 .25z" fill="#87d147"/></g></g><g><g><circle cx="76.257" cy="3.377" fill="#fc657e" r="3.377"/></g></g><g><g><circle cx="211.257" cy="85.377" fill="#70d6f9" r="3.377"/></g></g><g><g><path d="m116.73 246.758h-1.824v-1.824c0-1.366-1.107-2.473-2.473-2.473s-2.473 1.107-2.473 2.473v1.824h-1.824c-1.366 0-2.473 1.107-2.473 2.473s1.107 2.473 2.473 2.473h1.824v1.824c0 1.366 1.107 2.473 2.473 2.473s2.473-1.107 2.473-2.473v-1.824h1.824c1.366 0 2.473-1.107 2.473-2.473s-1.108-2.473-2.473-2.473z" fill="#70d6f9"/></g></g><g><g><circle cx="86.641" cy="245.627" fill="#f5c84c" r="3.377"/></g></g><g><g><path d="m199.812 172.5h-163.11c-1.381 0-2.5-1.119-2.5-2.5v-107.474c0-.663.263-1.299.732-1.768l50.401-50.401c.469-.469 1.104-.732 1.768-.732h100.367c8.183 0 14.841 6.658 14.841 14.841v145.534c.001 1.381-1.119 2.5-2.499 2.5zm-160.61-5h158.109v-143.034c0-5.426-4.415-9.841-9.841-9.841h-99.331l-48.937 48.937z"/></g></g><g><g><path d="m74.763 65.026h-36.888c-1.381 0-2.5-1.119-2.5-2.5s1.119-2.5 2.5-2.5h36.888c5.426 0 9.841-4.415 9.841-9.841v-36.872c0-1.381 1.119-2.5 2.5-2.5s2.5 1.119 2.5 2.5v36.873c0 8.183-6.658 14.84-14.841 14.84z"/></g></g><g><g><path d="m90.002 185.859h-10.031c-.276 0-.5.224-.5.5v31.57c0 .276.224.5.5.5h4.075c.276 0 .5-.224.5-.5v-12.218h5.456c6.856 0 11.292-3.363 11.292-9.904 0-5.936-3.583-9.948-11.292-9.948zm-5.456 4.403h5.098c4.058 0 6.485 1.366 6.485 5.545 0 4.041-2.394 5.5-6.485 5.5h-5.098z"/></g></g><g><g><path d="m129.767 185.859h-4.12c-.276 0-.5.224-.5.5v13.158h-15.031v-13.158c0-.276-.224-.5-.5-.5h-4.075c-.276 0-.5.224-.5.5v31.57c0 .276.224.5.5.5h4.075c.276 0 .5-.224.5-.5v-14.098h15.031v14.098c0 .276.224.5.5.5h4.12c.276 0 .5-.224.5-.5v-31.57c0-.276-.224-.5-.5-.5z"/></g></g><g><g><path d="m146.335 185.859h-10.031c-.276 0-.5.224-.5.5v31.57c0 .276.224.5.5.5h4.075c.276 0 .5-.224.5-.5v-12.218h5.456c6.856 0 11.292-3.363 11.292-9.904 0-5.936-3.583-9.948-11.292-9.948zm-5.456 4.403h5.098c4.058 0 6.485 1.366 6.485 5.545 0 4.041-2.394 5.5-6.485 5.5h-5.098z"/></g></g><g><g><path d="m146.36 133.893c-2.265 0-4.503-1.025-5.966-2.971-2.468-3.285-1.804-7.964 1.479-10.434l13.996-10.516-13.995-10.516c-3.284-2.469-3.949-7.149-1.481-10.433 1.199-1.595 2.946-2.626 4.919-2.903 1.967-.276 3.926.229 5.514 1.423l21.923 16.472c1.891 1.421 2.975 3.593 2.975 5.957s-1.085 4.535-2.975 5.956l-21.924 16.473c-1.337 1.007-2.907 1.492-4.465 1.492zm-.006-42.845c-.115 0-.23.008-.346.024-.648.091-1.223.431-1.618.956-.812 1.08-.593 2.62.488 3.432l16.655 12.514c.628.472.998 1.212.998 1.999s-.37 1.526-.998 1.999l-16.656 12.514c-1.08.812-1.298 2.352-.487 3.432.812 1.08 2.352 1.299 3.431.488l21.924-16.473c.622-.467.979-1.182.979-1.959s-.357-1.492-.979-1.96l-21.923-16.472c-.428-.324-.94-.494-1.468-.494z"/></g></g><g><g><path d="m89.642 133.898c-1.604 0-3.157-.516-4.461-1.496l-21.924-16.472c-1.889-1.42-2.973-3.59-2.974-5.955 0-2.367 1.084-4.538 2.974-5.958l21.923-16.473c1.589-1.195 3.548-1.699 5.523-1.417 1.973.28 3.716 1.31 4.91 2.899 1.196 1.591 1.701 3.553 1.421 5.523-.28 1.969-1.311 3.712-2.902 4.909l-13.995 10.516 13.995 10.515c3.285 2.469 3.949 7.149 1.481 10.433-1.195 1.591-2.939 2.622-4.91 2.901-.354.05-.709.075-1.061.075zm.006-42.846c-.527 0-1.037.168-1.464.489l-21.923 16.473c-.63.474-.978 1.17-.978 1.96 0 .789.348 1.485.978 1.958l21.923 16.472c.523.394 1.168.561 1.817.468.648-.092 1.221-.431 1.614-.955.813-1.081.593-2.62-.487-3.433l-16.654-12.514c-.628-.472-.998-1.212-.998-1.999s.37-1.526.998-1.999l16.654-12.512c.524-.394.864-.968.956-1.615s-.074-1.292-.468-1.816c-.393-.522-.966-.86-1.616-.953-.118-.016-.235-.024-.352-.024z"/></g></g><g><g><path d="m116.5 125.086c-1.381 0-2.5-1.119-2.5-2.5 0-1.103.714-2.039 1.705-2.371l-.006-5.757c0-1.313 1.015-2.401 2.324-2.494 8.86-.626 13.352-4.919 13.352-12.759 0-7.591-4.843-12.123-12.955-12.123-5.47 0-9.884 2.099-12.111 5.758-.986 1.619-1.541 3.487-1.653 5.563h4.035c.367-4.894 4.107-8.126 9.538-8.126 5.546 0 8.992 3.421 8.992 8.928 0 3.997-1.306 6.792-3.882 8.305-2.438 1.432-5.729 2.158-9.78 2.158h-1.759v10.549c.987.334 1.698 1.269 1.698 2.369 0 1.381-1.119 2.5-2.5 2.5-2.474 0-4.198-2.479-4.198-4.703v-11.517c0-2.315 1.883-4.198 4.198-4.198h2.559c3.105 0 5.611-.508 7.248-1.469.35-.206 1.415-.832 1.415-3.994 0-2.717-1.231-3.928-3.992-3.928-1.706 0-4.568.51-4.568 3.928 0 2.314-1.883 4.198-4.198 4.198h-5.63c-2.314 0-4.198-1.883-4.198-4.198 0-3.329.809-6.346 2.404-8.965 3.155-5.184 9.126-8.158 16.382-8.158 10.907 0 17.955 6.721 17.955 17.123 0 9.739-5.677 16.016-15.676 17.495v3.683c-.001 2.224-1.725 4.703-4.199 4.703zm-4.7-4.734v.026c0-.013.001-.02.004-.023-.001-.001-.002-.002-.004-.003z"/></g></g><g><g><path d="m117.332 135.328h-7.038c-2.314 0-4.198-1.883-4.198-4.198v-6.846c0-2.314 1.883-4.198 4.198-4.198h7.038c2.314 0 4.198 1.883 4.198 4.198v6.846c0 2.315-1.884 4.198-4.198 4.198zm-6.236-5h5.434v-5.242h-5.434zm6.236-5.242h.01z"/></g></g></g></g></svg>